<svg width="28" height="28" viewBox="0 0 28 28" fill="none" xmlns="http://www.w3.org/2000/svg">
<path fill-rule="evenodd" clip-rule="evenodd" d="M20.6118 19.2402L27.5 26.0887L26.0802 27.5L19.1769 20.6382C16.8458 22.5488 13.8624 23.4909 10.8494 23.2677C7.83635 23.0445 5.02642 21.6733 3.00599 19.4404C0.985562 17.2074 -0.0892653 14.2851 0.00581006 11.2834C0.100885 8.2816 1.35852 5.43231 3.51626 3.33008C5.674 1.22786 8.56514 0.035113 11.5863 0.000762956C14.6075 -0.0335871 17.5254 1.09311 19.7309 3.14573C21.9365 5.19835 23.2593 8.0183 23.4235 11.0171C23.5876 14.0159 22.5803 16.9619 20.6118 19.2402ZM21.4322 11.6494C21.4322 9.08933 20.4091 6.6341 18.5879 4.82385C16.7667 3.0136 14.2966 1.99661 11.721 1.99661C9.14546 1.99661 6.67539 3.0136 4.85419 4.82385C3.03299 6.6341 2.00985 9.08933 2.00985 11.6494C2.00985 14.2095 3.03299 16.6647 4.85419 18.475C6.67539 20.2852 9.14546 21.3022 11.721 21.3022C14.2966 21.3022 16.7667 20.2852 18.5879 18.475C20.4091 16.6647 21.4322 14.2095 21.4322 11.6494Z" fill="white"/>
</svg>
